<svg id="visual" viewBox="0 0 900 600" width="900" height="600" xmlns="http://www.w3.org/2000/svg" xmlns:xlink="http://www.w3.org/1999/xlink" version="1.1"><rect x="0" y="0" width="900" height="600" fill="#181818"></rect><path d="M0 452L21.5 463C43 474 86 496 128.8 490.3C171.7 484.7 214.3 451.3 257.2 450.7C300 450 343 482 385.8 481.5C428.7 481 471.3 448 514.2 425.2C557 402.3 600 389.7 642.8 384.5C685.7 379.3 728.3 381.7 771.2 392.3C814 403 857 422 878.5 431.5L900 441L900 601L878.5 601C857 601 814 601 771.2 601C728.3 601 685.7 601 642.8 601C600 601 557 601 514.2 601C471.3 601 428.7 601 385.8 601C343 601 300 601 257.2 601C214.3 601 171.7 601 128.8 601C86 601 43 601 21.5 601L0 601Z" fill="#FF7272" stroke-linecap="round" stroke-linejoin="miter"></path></svg>