<svg id="visual" viewBox="0 0 3000 450" width="3000" height="450" xmlns="http://www.w3.org/2000/svg" xmlns:xlink="http://www.w3.org/1999/xlink" version="1.1"><rect x="0" y="0" width="3000" height="450" fill="#FF7272"></rect><path d="M0 65L55.5 68.3C111 71.7 222 78.3 333.2 80.2C444.3 82 555.7 79 666.8 98.3C778 117.7 889 159.3 1000 163C1111 166.7 1222 132.3 1333.2 106C1444.3 79.7 1555.7 61.3 1666.8 53.7C1778 46 1889 49 2000 69C2111 89 2222 126 2333.2 124.2C2444.3 122.3 2555.7 81.7 2666.8 76C2778 70.3 2889 99.7 2944.5 114.3L3000 129L3000 0L2944.5 0C2889 0 2778 0 2666.8 0C2555.7 0 2444.3 0 2333.2 0C2222 0 2111 0 2000 0C1889 0 1778 0 1666.8 0C1555.7 0 1444.3 0 1333.2 0C1222 0 1111 0 1000 0C889 0 778 0 666.8 0C555.7 0 444.3 0 333.2 0C222 0 111 0 55.5 0L0 0Z" fill="#F6F6F6" stroke-linecap="round" stroke-linejoin="miter"></path></svg>